<svg width="24" height="24" viewBox="0 0 24 24" fill="none" xmlns="http://www.w3.org/2000/svg">
<path d="M6 18.4286H19.3333C19.7333 18.4286 20 18.1714 20 17.7857V3.64286C20 3.25714 19.7333 3 19.3333 3H6.66667C5.2 3 4 4.15714 4 5.57143V19.0714C4 20.1643 4.86667 21 6 21H19.3333C19.7333 21 20 20.7429 20 20.3571C20 19.9714 19.7333 19.7143 19.3333 19.7143H6C5.6 19.7143 5.33333 19.4571 5.33333 19.0714C5.33333 18.6857 5.6 18.4286 6 18.4286ZM8.06667 13.6714L11.4 7.24286C11.6 6.79286 12.4 6.79286 12.6 7.24286L15.9333 13.6714C16.0667 13.9929 15.9333 14.3786 15.6667 14.5071C15.5333 14.5714 15.4667 14.5714 15.3333 14.5714C15.0667 14.5714 14.8667 14.4429 14.7333 14.1857L13.9333 12.6429H10.0667L9.26667 14.1857C9.13333 14.5071 8.73333 14.6357 8.4 14.4429C8.06667 14.3143 7.93333 13.9286 8.06667 13.6714Z" fill="#323232"/>
<path d="M12 8.40039L10.575 11.2504H13.425L12 8.40039Z" fill="black"/>
</svg>
