<svg width="24" height="24" viewBox="0 0 24 24" fill="none" xmlns="http://www.w3.org/2000/svg">
<path d="M19.4397 16.2525L14.6858 10.4175V6.29247H15.2115C15.6622 6.29247 16.0302 5.92497 16.0302 5.47499V3.81747C16.0302 3.36749 15.6622 3 15.2115 3H8.79789C8.34739 3 7.97932 3.36749 7.97932 3.81747V5.47499C7.97932 5.92497 8.34739 6.29247 8.79789 6.29247H9.31613V10.425L4.52472 16.2975C3.8939 17.22 3.82633 18.4125 4.352 19.395C4.87767 20.385 5.8916 21 7.0181 21H16.9989C18.1105 21 19.1317 20.385 19.6575 19.4025C20.1757 18.4125 20.1081 17.22 19.4397 16.2525ZM16.9914 19.365H7.01058C6.49234 19.365 6.04176 19.0875 5.80139 18.63C5.55359 18.1725 5.58366 17.6475 5.83146 17.28L6.15434 16.89C7.83667 17.7375 9.76671 17.3475 11.8019 16.935C13.6494 16.5525 15.5569 16.1625 17.5847 16.56L18.1329 17.2275C18.7469 18.1311 18.0951 19.365 16.9914 19.365Z" fill="#323232"/>
</svg>
