<svg width="24" height="24" viewBox="0 0 24 24" fill="none" xmlns="http://www.w3.org/2000/svg">
<path d="M19.215 16.1649C20.2008 14.4574 17.7698 11.2083 13.7853 8.90785C9.80077 6.60738 5.77151 6.12666 4.7857 7.83413C3.79989 9.5416 6.23083 12.7907 10.2154 15.0912C14.1999 17.3916 18.2292 17.8723 19.215 16.1649Z" stroke="#323232" stroke-width="1.5" stroke-linecap="round" stroke-linejoin="round"/>
<path d="M13.7853 15.0921C17.7698 12.7917 20.2008 9.5426 19.215 7.83512C18.2292 6.12765 14.1999 6.60837 10.2154 8.90885C6.23083 11.2093 3.79989 14.4584 4.7857 16.1659C5.77151 17.8733 9.80077 17.3926 13.7853 15.0921Z" stroke="#323232" stroke-width="1.5" stroke-linecap="round" stroke-linejoin="round"/>
<path d="M14.8644 16.9606C14.2129 19.0017 13.1747 20.3304 12.0001 20.3304C10.8254 20.3304 9.78728 19.0017 9.13574 16.9606M9.13574 7.03882C9.78728 4.9977 10.8254 3.66895 12.0001 3.66895C13.1747 3.66895 14.2129 4.9977 14.8644 7.03882" stroke="#323232" stroke-width="1.5" stroke-linecap="round" stroke-linejoin="round"/>
<circle cx="12" cy="12" r="1.75" fill="#323232"/>
</svg>
