<svg width="24" height="24" viewBox="0 0 24 24" fill="none" xmlns="http://www.w3.org/2000/svg">
<path d="M6.77119 4.47384C6.48298 4.00386 5.86511 3.85297 5.42318 4.1826C5.03313 4.47352 4.66282 4.79 4.31468 5.12996C3.92023 5.51514 3.97301 6.14897 4.39235 6.50689C4.81169 6.8648 5.43831 6.81027 5.84043 6.43311C6.04275 6.24335 6.25374 6.06303 6.47271 5.89274C6.90791 5.5543 7.05941 4.94383 6.77119 4.47384ZM17.2283 4.47384C17.5165 4.00386 18.1344 3.85297 18.5763 4.1826C18.9664 4.47352 19.3367 4.79 19.6848 5.12996C20.0793 5.51514 20.0265 6.14897 19.6072 6.50689C19.1878 6.8648 18.5612 6.81027 18.1591 6.43311C17.9568 6.24335 17.7458 6.06303 17.5268 5.89274C17.0916 5.5543 16.9401 4.94383 17.2283 4.47384Z" fill="#323232"/>
<path fill-rule="evenodd" clip-rule="evenodd" d="M9 3C9 2.44772 9.44772 2 10 2H14C14.5523 2 15 2.44772 15 3C15 3.55228 14.5523 4 14 4H13V5.06189C16.9463 5.55399 20 8.92038 20 13C20 17.4183 16.4183 21 12 21C7.58172 21 4 17.4183 4 13C4 8.92038 7.05369 5.55399 11 5.06189V4H10C9.44772 4 9 3.55228 9 3ZM15.7071 9.29289C16.0976 9.68342 16.0976 10.3166 15.7071 10.7071L13.9323 12.482C13.9764 12.6472 14 12.8208 14 13C14 14.1046 13.1046 15 12 15C10.8954 15 10 14.1046 10 13C10 11.8954 10.8954 11 12 11C12.1792 11 12.3528 11.0236 12.518 11.0677L14.2929 9.29289C14.6834 8.90237 15.3166 8.90237 15.7071 9.29289Z" fill="#323232"/>
</svg>
